<svg xmlns="http://www.w3.org/2000/svg" width="860" height="360" viewBox="0 0 860 360" role="img" aria-label="DDA line rasterization">
  <rect width="860" height="360" fill="#f4f1eb"/>
  <g transform="translate(70,40)">
    <g stroke="#d8d2c6" stroke-width="1">
      <line x1="0" y1="0" x2="680" y2="0"/>
      <line x1="0" y1="40" x2="680" y2="40"/>
      <line x1="0" y1="80" x2="680" y2="80"/>
      <line x1="0" y1="120" x2="680" y2="120"/>
      <line x1="0" y1="160" x2="680" y2="160"/>
      <line x1="0" y1="200" x2="680" y2="200"/>
      <line x1="0" y1="240" x2="680" y2="240"/>
      <line x1="0" y1="280" x2="680" y2="280"/>
      <line x1="0" y1="0" x2="0" y2="280"/>
      <line x1="40" y1="0" x2="40" y2="280"/>
      <line x1="80" y1="0" x2="80" y2="280"/>
      <line x1="120" y1="0" x2="120" y2="280"/>
      <line x1="160" y1="0" x2="160" y2="280"/>
      <line x1="200" y1="0" x2="200" y2="280"/>
      <line x1="240" y1="0" x2="240" y2="280"/>
      <line x1="280" y1="0" x2="280" y2="280"/>
      <line x1="320" y1="0" x2="320" y2="280"/>
      <line x1="360" y1="0" x2="360" y2="280"/>
      <line x1="400" y1="0" x2="400" y2="280"/>
      <line x1="440" y1="0" x2="440" y2="280"/>
      <line x1="480" y1="0" x2="480" y2="280"/>
      <line x1="520" y1="0" x2="520" y2="280"/>
      <line x1="560" y1="0" x2="560" y2="280"/>
      <line x1="600" y1="0" x2="600" y2="280"/>
      <line x1="640" y1="0" x2="640" y2="280"/>
      <line x1="680" y1="0" x2="680" y2="280"/>
    </g>
    <line x1="60" y1="220" x2="620" y2="60" stroke="#9a6a00" stroke-width="4"/>
    <g fill="#007fa3" opacity="0.85">
      <rect x="44" y="204" width="32" height="32"/>
      <rect x="84" y="204" width="32" height="32"/>
      <rect x="124" y="164" width="32" height="32"/>
      <rect x="164" y="164" width="32" height="32"/>
      <rect x="204" y="164" width="32" height="32"/>
      <rect x="244" y="124" width="32" height="32"/>
      <rect x="284" y="124" width="32" height="32"/>
      <rect x="324" y="124" width="32" height="32"/>
      <rect x="364" y="84" width="32" height="32"/>
      <rect x="404" y="84" width="32" height="32"/>
      <rect x="444" y="84" width="32" height="32"/>
      <rect x="484" y="84" width="32" height="32"/>
      <rect x="524" y="44" width="32" height="32"/>
      <rect x="564" y="44" width="32" height="32"/>
      <rect x="604" y="44" width="32" height="32"/>
    </g>
    <g fill="#202426">
      <circle cx="60" cy="220" r="6"/>
      <circle cx="620" cy="60" r="6"/>
    </g>
  </g>
  <text x="430" y="326" fill="#202426" font-family="sans-serif" font-size="22" text-anchor="middle">
    <tspan x="430" dy="0">DDA: step along the dominant axis</tspan>
    <tspan x="430" dy="28">and round the continuous position to pixels</tspan>
  </text>
</svg>
